#!OML:ASF H:\ManfredETheater\Project 1\Capture day 1\Session 1\subject.ASF
:FULLY-SPECIFIED
:DEGREES
161
root 0.5428 16.2555 -26.0821 -144.573 -38.3541 168.321
lowerback 21.9233 1.756 -5.6629
upperback 0.235616 -0.0200715 -4.52764
thorax -12.123 0.0226886 -1.81439
lowerneck -8.79861 -9.803 -8.3949
upperneck -18.7615 -12.5412 15.9108
head -2.51589 -7.11389 6.10437
rclavicle -2.36554e-014 3.16068e-014
rhumerus 19.0336 8.81133 -60.775
rradius 99.9796
rwrist 0.508447
rhand -34.5564 5.28135
rfingers 7.12502
rthumb -7.71666 -24.5578
lclavicle -2.36554e-014 3.16068e-014
lhumerus -73.0338 -3.99381 66.1142
lradius 89.6777
lwrist 2.47421
lhand -37.8901 -14.2673
lfingers 7.12502
lthumb -10.9333 15.428
rfemur -19.0391 -16.7069 29.4317
rtibia 46.567
rfoot -1.52819 11.4833
rtoes -15.2423
lfemur -61.7077 4.48527 -19.228
ltibia 91.1934
lfoot -3.68846 -20.46
ltoes 10.2945
162
root 0.3565 16.3256 -26.6769 -145.473 -38.285 169.196
lowerback 20.7762 1.91286 -5.73569
upperback 0.404881 0.346629 -4.23037
thorax -11.2873 0.207358 -1.51335
lowerneck -9.10562 -9.96707 -8.23731
upperneck -18.2401 -12.7807 15.6989
head -2.31572 -7.19653 5.95528
rclavicle 4.56211e-014 -1.59723e-013
rhumerus 17.62 9.6913 -61.4246
rradius 100.479
rwrist 0.3084
rhand -35.673 5.62961
rfingers 7.12502
rthumb -8.79425 -24.1672
lclavicle 4.56211e-014 -1.59723e-013
lhumerus -74.3586 -4.297 66.8107
lradius 90.5955
lwrist 3.29689
lhand -36.7707 -14.8418
lfingers 7.12502
lthumb -9.85339 14.9077
rfemur -14.1823 -14.3428 29.4778
rtibia 40.5695
rfoot 11.0945 8.45721
rtoes -7.91463
lfemur -63.8081 4.45592 -19.9912
ltibia 90.2262
lfoot -3.99955 -20.239
ltoes 12.8068
163
root 0.164774 16.3978 -27.2823 -146.251 -38.1617 170.115
lowerback 19.4535 2.02684 -5.85503
upperback 0.51289 0.666709 -3.8885
thorax -10.431 0.37596 -1.11613
lowerneck -9.40467 -10.0722 -8.10281
upperneck -17.6452 -12.9482 15.362
head -2.11392 -7.23248 5.77472
rclavicle -2.25621e-014 -2.44505e-014
rhumerus 16.2495 10.6713 -62.021
rradius 100.566
rwrist -0.788549
rhand -36.2991 5.93183
rfingers 7.12502
rthumb -9.39843 -23.8386
lclavicle -2.25621e-014 -2.44505e-014
lhumerus -75.7137 -4.28588 67.5005
lradius 91.5875
lwrist 4.2011
lhand -35.6144 -15.5242
lfingers 7.12502
lthumb -8.73772 14.275
rfemur -9.58998 -11.3849 29.818
rtibia 34.444
rfoot 21.9309 5.31991
rtoes -7.76326
lfemur -65.8423 4.41787 -20.7433
ltibia 88.898
lfoot -4.08394 -19.9756
ltoes 15.3096
164
root -0.0318879 16.443 -27.8702 -146.777 -38.2577 171.119
lowerback 17.8738 2.0649 -5.62652
upperback 0.481584 0.991961 -3.50299
thorax -9.58537 0.539569 -0.862992
lowerneck -9.41606 -10.1474 -7.87683
upperneck -17.1018 -13.0948 14.7795
head -2.00299 -7.25636 5.5298
rclavicle 1.15394e-013 -6.12257e-014
rhumerus 14.6546 11.4984 -62.5582
rradius 100.287
rwrist -2.1408
rhand -36.3876 5.82041
rfingers 7.12502
rthumb -9.48383 -23.9462
lclavicle 1.15394e-013 -6.12257e-014
lhumerus -76.8752 -4.21315 68.2717
lradius 92.4276
lwrist 4.99717
lhand -34.6726 -16.3139
lfingers 7.12502
lthumb -7.82874 13.5211
rfemur -5.3398 -9.09643 30.6997
rtibia 28.3555
rfoot 29.3381 7.20717
rtoes -14.3591
lfemur -68.2603 4.20177 -21.3497
ltibia 87.4553
lfoot -4.16174 -19.6452
ltoes 17.7595
165
root -0.236189 16.5015 -28.4669 -147.323 -38.2476 172.173
lowerback 16.3052 2.11697 -5.30477
upperback 0.419672 1.32879 -3.15407
thorax -8.77826 0.704917 -0.70098
lowerneck -9.3692 -10.2109 -7.81709
upperneck -16.5074 -13.1957 14.3619
head -1.86405 -7.25284 5.36299
rclavicle 7.82218e-014 2.52457e-014
rhumerus 13.0392 12.2209 -63.0879
rradius 99.5847
rwrist -3.15341
rhand -36.0362 5.23509
rfingers 7.12502
rthumb -9.14475 -24.5466
lclavicle 7.82218e-014 2.52457e-014
lhumerus -77.7938 -3.97079 68.9259
lradius 93.1501
lwrist 5.69573
lhand -33.7324 -17.2036
lfingers 7.12502
lthumb -6.92121 12.6633
rfemur -1.30003 -6.92216 31.6985
rtibia 22.7683
rfoot 34.6038 7.95822
rtoes -3.07351
lfemur -70.3978 4.0486 -22.025
ltibia 85.4652
lfoot -4.16038 -19.1504
ltoes 19.8459
166
root -0.432959 16.5436 -29.0428 -147.391 -38.6793 173.145
lowerback 14.5543 1.96905 -4.51757
upperback 0.199181 1.47108 -2.85112
thorax -8.01906 0.765434 -0.799004
lowerneck -9.30268 -10.2548 -7.6316
upperneck -15.8861 -13.2802 13.883
head -1.73576 -7.24538 5.16166
rclavicle 8.34896e-015 6.63941e-014
rhumerus 11.2976 12.7755 -63.8552
rradius 98.5346
rwrist -3.58257
rhand -35.3145 4.23652
rfingers 7.12502
rthumb -8.44825 -25.5745
lclavicle 8.34896e-015 6.63941e-014
lhumerus -78.5744 -3.6348 69.432
lradius 93.9033
lwrist 6.22009
lhand -32.9186 -17.6089
lfingers 7.12502
lthumb -6.13566 12.2823
rfemur 2.12211 -4.39902 33.2282
rtibia 17.9268
rfoot 35.4702 6.0411
rtoes 8.93137
lfemur -72.9686 3.40183 -22.5504
ltibia 83.119
lfoot -3.60904 -18.3561
ltoes 22.8791
